<?xml version="1.0"?>
<svg width="100" height="100" xmlns="http://www.w3.org/2000/svg" xmlns:svg="http://www.w3.org/2000/svg" version="1.1">
 <g class="layer">
  <title>Layer 1</title>
  <g id="svg_1" transform="translate(0,-952.36218)">
   <path d="m29.03,960.36c-1.1,0 -2,0.9 -2,2l0,17c0,1.11 0.9,2 2,2c1.11,0 2,-0.89 2,-2l0,-17c0,-1.1 -0.89,-2 -2,-2zm42,0c-1.1,0 -2,0.9 -2,2l0,17c0,1.11 0.9,2 2,2c1.11,0 2,-0.89 2,-2l0,-17c0,-1.1 -0.89,-2 -2,-2zm-56,6c-4.44,0 -8.03,3.59 -8.03,8.03l0,17.97l86,0l0,-17.97c0,-4.44 -3.59,-8.03 -8.03,-8.03l-5.97,0l-3.97,0l0,8.53c1.23,1.1 2,2.7 2,4.47c0,3.32 -2.69,6 -6,6c-3.31,0 -6,-2.68 -6,-6c0,-1.77 0.77,-3.37 2,-4.47l0,-8.53l-34.03,0l0,8.5c1.25,1.1 2.03,2.71 2.03,4.5c0,3.32 -2.69,6 -6,6c-3.31,0 -6,-2.68 -6,-6c0,-1.76 0.76,-3.34 1.97,-4.44l0,-8.56l-9.97,0zm-8.03,30l0,39.97c0,4.45 3.59,8.03 8.03,8.03l69.94,0c4.44,0 8.03,-3.58 8.03,-8.03l0,-39.97l-86,0z" display="inline" enable-background="accumulate" fill="#000000" id="svg_2"/>
  </g>
 </g>
</svg>