<?xml version="1.0"?>
<svg width="100" height="100" xmlns="http://www.w3.org/2000/svg" xmlnsSvg="http://www.w3.org/2000/svg" version="1.1">
 <g class="layer">
  <title>Layer 1</title>
  <g id="svg_1">
   <path d="m46.81,-942.36a3,3 0 0 0 -2.81,3l0,53.47l-30.25,2.53a3,3 0 0 0 -2.25,4.66l10,15a3,3 0 0 0 2.5,1.34l52,0a3,3 0 0 0 2.72,-1.72l10,-21a3,3 0 0 0 -2.97,-4.28l-35.75,2.97l0,-48.72c5.81,2.33 12,6.71 17.13,12.69c5.51,6.43 9.63,14.53 11.25,23.06l-21.38,0a3,3 0 1 0 0,6l25,0a3,3 0 0 0 2.97,-3.31c-1.17,-11.23 -6.4,-21.6 -13.31,-29.66c-6.92,-8.06 -15.47,-13.92 -23.94,-15.97a3,3 0 0 0 -0.91,-0.06zm-10.18,10a3,3 0 0 0 -2.22,1.47l-22,38a3,3 0 0 0 2.59,4.53l22,0a3,3 0 0 0 3,-3l0,-38a3,3 0 0 0 -3.37,-3zm-2.63,14.16l0,23.84l-13.81,0l13.81,-23.84zm47.03,35.25l-6.94,14.59l-48.46,0l-6.32,-9.47l61.72,-5.12z" display="inline" enable-background="accumulate" fill="#000000" id="svg_2" stroke-width="6" transform="translate(0 952.362)"/>
  </g>
 </g>
</svg>