<?xml version="1.0"?>
<svg width="100" height="100" xmlns="http://www.w3.org/2000/svg" xmlnsSvg="http://www.w3.org/2000/svg">
 <g class="layer">
  <g id="svg_5">
   <path d="m44.17,43.39a3.56,3.56 0 1 0 -5.31,4.73c1.99,2.22 4.85,3.76 8.04,4.4a3.56,3.56 0 0 0 7.04,0c3.19,-0.64 6.05,-2.17 8.04,-4.4a3.56,3.56 0 1 0 -5.31,-4.74c-0.6,0.68 -1.52,1.31 -2.68,1.74l0,-4.71l0.89,0a3.56,3.56 0 1 0 0,-7.12l-0.92,0a3.56,3.56 0 0 0 -7.07,0l-0.92,0a3.56,3.56 0 1 0 0,7.12l0.89,0l0,4.71c-1.17,-0.44 -2.08,-1.07 -2.69,-1.74l0,0.01z" fill="#000" id="svg_1"/>
   <path clip-rule="evenodd" d="m9.36,62.77a8.9,8.9 0 0 0 8.86,6.38l-0.8,3.76c-0.47,2.22 0.8,4.44 2.96,5.12c22.85,7.14 37.18,7.07 60.02,-0.01c2.17,-0.67 3.45,-2.9 2.98,-5.12l-0.79,-3.73a8.9,8.9 0 0 0 8.18,-5.94l3.11,-8.81c3.09,-8.77 -1.09,-18.44 -9.6,-22.19l-26.63,-11.75a17.8,17.8 0 0 0 -14.49,0.05l-26.67,11.99c-8.11,3.64 -12.28,12.71 -9.78,21.24l2.64,9.01zm77.8,-10.71l-3.1,8.82a1.78,1.78 0 0 1 -1.85,1.18l-27.88,-2.62a42.71,42.71 0 0 0 -7.86,0l-28.41,2.59a1.78,1.78 0 0 1 -1.87,-1.27l-2.64,-9a10.68,10.68 0 0 1 5.86,-12.75l26.67,-11.99a10.68,10.68 0 0 1 8.69,-0.03l26.63,11.75a10.68,10.68 0 0 1 5.76,13.31zm-33.49,14.48l21.51,2.01l0.72,3.41c-9.89,2.92 -17.79,4.28 -25.51,4.29c-7.72,0 -15.62,-1.34 -25.5,-4.28l0.74,-3.47l21.49,-1.97a35.6,35.6 0 0 1 6.55,0.01z" fill="#000" fill-rule="evenodd" id="svg_2"/>
  </g>
 </g>
</svg>