<?xml version="1.0"?>
<svg width="100" height="100" xmlns="http://www.w3.org/2000/svg" xmlnsSvg="http://www.w3.org/2000/svg" data-name="Layer 1">
 <g class="layer">
  <title>Layer 1</title>
  <path d="m76.1,80.52l-52.2,0a8.17,7.49 0 0 1 -8.14,-7.48l0,-36.2a8.16,7.48 0 0 1 8.14,-7.43l6.68,0a0.74,0.68 0 0 0 0.73,-0.53l0.9,-3.59a8.12,7.44 0 0 1 7.93,-5.8l19.69,0a8.12,7.44 0 0 1 7.93,5.8l0.9,3.59l0,0a0.74,0.68 0 0 0 0.73,0.53l6.69,0a8.16,7.48 0 0 1 8.13,7.43l0,36.2a8.17,7.49 0 0 1 -8.13,7.48zm-52.2,-44.31a0.73,0.67 0 0 0 -0.73,0.68l0,36.16a0.73,0.67 0 0 0 0.73,0.68l52.2,0a0.73,0.67 0 0 0 0.73,-0.68l0,-36.2a0.73,0.67 0 0 0 -0.73,-0.68l-6.69,0a8.12,7.44 0 0 1 -7.95,-5.8l-0.9,-3.59a0.74,0.68 0 0 0 -0.72,-0.53l-19.68,0a0.74,0.68 0 0 0 -0.72,0.53l-0.9,3.59a8.12,7.44 0 0 1 -7.95,5.8l-6.69,0.05zm26.1,7.89a11.94,10.94 0 1 0 11.94,10.94a11.94,10.94 0 0 0 -11.94,-10.94z" id="svg_1"/>
 </g>
</svg>