<?xml version="1.0"?>
<svg width="100" height="100" xmlns="http://www.w3.org/2000/svg" xmlnsSvg="http://www.w3.org/2000/svg">
 <g class="layer">
  <g id="svg_10">
   <path d="m79.04,16.12c-0.63,-0.11 -1.34,-0.19 -2.05,-0.19l-3.73,0l0,-2.39c0,-1.53 -1.27,-2.8 -2.8,-2.8s-2.8,1.27 -2.8,2.8l0,2.39l-37.32,0l0,-2.39c0,-1.53 -1.27,-2.8 -2.8,-2.8s-2.8,1.27 -2.8,2.8l0,2.39l-3.73,0c-0.71,0 -1.38,0.07 -2.05,0.19c-4.7,0.97 -8.21,5.11 -8.21,10.08l0,50.79c0,5.67 4.59,10.26 10.26,10.26l55.98,0c5.67,0 10.26,-4.59 10.26,-10.26l0,-50.79c0,-4.96 -3.51,-9.11 -8.21,-10.08zm-58.03,5.41l3.73,0l0,3.36c0,1.53 1.27,2.8 2.8,2.8s2.8,-1.27 2.8,-2.8l0,-3.36l37.32,0l0,3.36c0,1.53 1.27,2.8 2.8,2.8s2.8,-1.27 2.8,-2.8l0,-3.36l3.73,0c2.57,0 4.66,2.09 4.66,4.66l0,4.22c0,2.57 -2.09,4.66 -4.66,4.66l-55.98,0c-2.57,0 -4.66,-2.09 -4.66,-4.66l0,-4.22c0,-2.57 2.09,-4.66 4.66,-4.66zm55.98,60.12l-55.98,0c-2.57,0 -4.66,-2.09 -4.66,-4.66l0,-37.47c1.42,0.71 2.99,1.16 4.66,1.16l55.98,0c1.68,0 3.25,-0.45 4.66,-1.16l0,37.47c0,2.57 -2.09,4.66 -4.66,4.66z" id="svg_1"/>
   <circle cx="30.97" cy="68.9" id="svg_2" r="3.73"/>
   <circle cx="30.97" cy="53.47" id="svg_3" r="3.73"/>
   <circle cx="49" cy="68.9" id="svg_4" r="3.73"/>
   <circle cx="49" cy="53.47" id="svg_5" r="3.73"/>
   <circle cx="67.03" cy="68.9" id="svg_6" r="3.73"/>
   <circle cx="67.03" cy="53.47" id="svg_7" r="3.73"/>
  </g>
 </g>
</svg>