<?xml version="1.0"?>
<svg width="100" height="100" xmlns="http://www.w3.org/2000/svg" xmlnsSvg="http://www.w3.org/2000/svg">

 <g class="layer">

  <path d="m85.29,68.95l-4,-10.06a3,3 0 0 0 -4.91,-1.01l-7.19,7.19a3,3 0 0 0 1.38,5.02l2.63,0.68a24.17,24.17 0 0 1 -19.7,14.05l0,-37.82l9,0a3,3 0 1 0 0,-6l-9,0l0,-10.47a11,11 0 1 0 -6,0l0,10.47l-9,0a3,3 0 1 0 0,6l9,0l0,37.82a24.17,24.17 0 0 1 -19.7,-14.05l2.63,-0.68a3,3 0 0 0 1.38,-5.02l-7.19,-7.19a3,3 0 0 0 -4.91,1.01l-4,10.06a3,3 0 0 0 3.54,4.01l2.61,-0.67c4.57,11.21 15.38,18.71 28.64,18.71s24.07,-7.5 28.64,-18.71l2.61,0.67a3,3 0 0 0 3.54,-4.01zm-39.79,-48.95a5,5 0 1 1 5,5a5,5 0 0 1 -5,-5z" id="svg_1"/>
 </g>
</svg>