<?xml version="1.0"?>
<svg width="100" height="100" xmlns="http://www.w3.org/2000/svg" xmlns:svg="http://www.w3.org/2000/svg" enable-background="new 0 0 16 16" version="1.1" xml:space="preserve">
 <g class="layer">
  <title>Layer 1</title>
  <g id="svg_1">
   <path d="m50.5,30.44c5.74,0 10.38,-4.58 10.38,-10.26c0,-10.26 -10.38,-17.1 -10.38,-17.1s-10.38,6.84 -10.38,17.1c0,5.68 4.63,10.26 10.38,10.26z" id="svg_2"/>
   <path d="m57.42,50.96l0,-13.68l-13.83,0l0,13.68l-27.67,0c-3.8,0 -6.92,3.08 -6.92,6.84l0,13.68c5.74,0 10.38,-4.58 10.38,-10.26c0,-1.92 1.52,-3.42 3.46,-3.42s3.46,1.5 3.46,3.42c0,5.68 4.63,10.26 10.38,10.26s10.38,-4.58 10.38,-10.26c0,-1.92 1.52,-3.42 3.46,-3.42s3.46,1.5 3.46,3.42c0,5.68 4.63,10.26 10.38,10.26s10.38,-4.58 10.38,-10.26c0,-1.92 1.52,-3.42 3.46,-3.42s3.46,1.5 3.46,3.42c0,5.68 4.63,10.26 10.38,10.26l0,-13.68c0,-3.76 -3.11,-6.84 -6.92,-6.84l-27.67,0z" id="svg_3"/>
   <path d="m78.17,71.48c-3.18,4.17 -8.16,6.84 -13.83,6.84s-10.65,-2.67 -13.83,-6.84c-3.18,4.17 -8.16,6.84 -13.83,6.84s-10.65,-2.67 -13.83,-6.84c-3.18,4.17 -8.16,6.84 -13.83,6.84l0,20.52l83,0l0,-20.52c-5.67,0 -10.65,-2.67 -13.83,-6.84z" id="svg_4"/>
  </g>
 </g>
</svg>