<?xml version="1.0"?>
<svg width="100" height="100" xmlns="http://www.w3.org/2000/svg" xmlns:svg="http://www.w3.org/2000/svg" version="1.1">
 <g class="layer">
  <title>Layer 1</title>
  <g id="svg_1" transform="translate(0,-952.36218)">
   <path d="m47.22,960.36c-0.59,0 -1.17,0.01 -1.75,0.03c-3.12,0.12 -6.25,0.59 -9.32,1.41c-22.35,5.99 -35.67,29.08 -29.68,51.44c5.99,22.35 29.08,35.68 51.43,29.69c22.36,-5.99 35.68,-29.09 29.69,-51.44a4,4 0 1 0 -7.72,2.06c4.87,18.18 -5.85,36.79 -24.03,41.66c-18.18,4.87 -36.79,-5.85 -41.66,-24.03c-4.87,-18.18 5.86,-36.79 24.04,-41.66c9.93,-2.66 20.53,-0.68 28.84,5.37a4,4 0 1 0 4.72,-6.46c-7.21,-5.26 -15.82,-8.03 -24.56,-8.07zm43.56,2.97a4,4 0 0 0 -2.72,1.28c-10.54,11.04 -31.62,33.83 -43.31,46.16l-14.07,-12.41a4.01,4.01 0 1 0 -5.31,6l17,15a4,4 0 0 0 5.56,-0.25c11.19,-11.7 34.87,-37.45 45.91,-49a4,4 0 0 0 -3.06,-6.78z" display="inline" enable-background="accumulate" fill="#000000" id="svg_2"/>
  </g>
 </g>
</svg>