<?xml version="1.0"?>
<svg width="100" height="100" xmlns="http://www.w3.org/2000/svg" xmlns:svg="http://www.w3.org/2000/svg">
 <g class="layer">
  <title>Layer 1</title>
  <g id="svg_7">
   <path d="m19.57,46.24c-5.16,-10.27 -3.1,-28.62 14.48,-28.62c17.58,0 19.63,18.35 14.48,28.62c-5.18,10.27 -23.77,10.27 -28.96,0z" fill="black" id="svg_1"/>
   <path d="m5,78.15c0,-8.43 10.12,-16.95 29.05,-16.95c18.93,0 29.05,8.52 29.05,16.95c-14.72,4.21 -43.39,4.21 -58.11,0z" fill="black" id="svg_2"/>
   <path d="m72.79,24.88c-15.06,0 -16.83,15.91 -12.4,24.79c4.43,8.91 20.36,8.91 24.79,0c4.43,-8.89 2.66,-24.79 -12.4,-24.79z" fill="black" id="svg_3"/>
   <path d="m72.79,63.62c-3.17,0 -5.98,0.22 -8.5,0.61c3.73,3.78 6.08,8.57 6.08,13.92l0,0.12c9.9,0.17 20.12,-0.68 26.63,-2.54c0,-6.05 -7.26,-12.11 -24.21,-12.11z" fill="black" id="svg_4"/>
  </g>
 </g>
</svg>