<?xml version="1.0"?>
<svg width="100" height="100" xmlns="http://www.w3.org/2000/svg" xmlns:svg="http://www.w3.org/2000/svg" enable-background="new 0 0 800 800" version="1.1" xml:space="preserve">
 <g class="layer">
  <title>Layer 1</title>
  <g id="svg_1">
   <path d="m78.91,44.52c-8.39,0 -15.57,5.22 -18.5,12.57c-2.34,-3.4 -6.26,-5.64 -10.7,-5.64c-4.43,0 -8.36,2.24 -10.7,5.64c-2.93,-7.36 -10.11,-12.57 -18.5,-12.57c-10.98,0 -19.91,8.93 -19.91,19.91c0,10.98 8.93,19.91 19.91,19.91c10.98,0 19.91,-8.93 19.91,-19.91c0,-5.12 4.17,-9.29 9.29,-9.29s9.29,4.17 9.29,9.29c0,10.98 8.93,19.91 19.91,19.91c10.98,0 19.91,-8.93 19.91,-19.91c0,-10.98 -8.93,-19.91 -19.91,-19.91zm-55.94,11.89l1.3,-1.3c0.72,-0.72 1.89,-0.72 2.6,0c0.72,0.72 0.72,1.89 0,2.61l-1.3,1.3c-0.36,0.36 -0.83,0.54 -1.3,0.54c-0.47,0 -0.94,-0.18 -1.3,-0.54c-0.72,-0.72 -0.72,-1.88 0,-2.6zm-9.13,14.34c-0.36,0.36 -0.83,0.54 -1.3,0.54c-0.47,0 -0.94,-0.18 -1.3,-0.54c-0.72,-0.72 -0.72,-1.89 0,-2.61l7.52,-7.52c0.72,-0.72 1.88,-0.72 2.6,0c0.72,0.72 0.72,1.88 0,2.6l-7.52,7.52zm16.02,-2.46l-5.44,5.44c-0.36,0.36 -0.83,0.54 -1.3,0.54c-0.47,0 -0.94,-0.18 -1.3,-0.54c-0.72,-0.72 -0.72,-1.88 0,-2.6l5.44,-5.44c0.72,-0.72 1.88,-0.72 2.6,0c0.72,0.72 0.72,1.89 0,2.61zm51.51,-11.89l1.3,-1.3c0.72,-0.72 1.88,-0.72 2.6,0c0.72,0.72 0.72,1.89 0,2.61l-1.3,1.3c-0.36,0.36 -0.83,0.54 -1.3,0.54c-0.47,0 -0.94,-0.18 -1.3,-0.54c-0.72,-0.72 -0.72,-1.88 0,-2.6zm-9.13,14.34c-0.36,0.36 -0.83,0.54 -1.3,0.54s-0.94,-0.18 -1.3,-0.54c-0.72,-0.72 -0.72,-1.89 0,-2.61l7.52,-7.52c0.72,-0.72 1.89,-0.72 2.61,0c0.72,0.72 0.72,1.88 0,2.6l-7.52,7.52zm16.02,-2.46l-5.44,5.44c-0.36,0.36 -0.83,0.54 -1.3,0.54c-0.47,0 -0.94,-0.18 -1.3,-0.54c-0.72,-0.72 -0.72,-1.88 0,-2.6l5.44,-5.44c0.72,-0.72 1.88,-0.72 2.6,0c0.72,0.72 0.72,1.89 0,2.61z" fill="#000000" id="svg_2"/>
   <path d="m17.91,23.14l4.27,-4.27c0.72,-0.72 0.72,-1.88 0,-2.6c-0.72,-0.72 -1.89,-0.72 -2.6,0l-4.58,4.58c-0.2,0.2 -0.35,0.45 -0.44,0.72l-8.01,23.87c1.48,-1.09 3.09,-2.02 4.81,-2.74l6.56,-19.54z" fill="#000000" id="svg_3"/>
   <path d="m81.52,23.14l6.56,19.54c1.72,0.73 3.33,1.65 4.81,2.74l-8.01,-23.87c-0.09,-0.27 -0.24,-0.52 -0.44,-0.72l-4.58,-4.58c-0.72,-0.72 -1.89,-0.72 -2.6,0c-0.72,0.72 -0.72,1.89 0,2.6l4.27,4.27z" fill="#000000" id="svg_4"/>
  </g>
 </g>
</svg>